<svg width="167" height="48" viewBox="0 0 167 48" fill="none" xmlns="http://www.w3.org/2000/svg">
<g clip-path="url(#clip0_8166_7707)">
<path d="M57.9347 26.3986V47.2557H68.6029C73.0808 47.2557 75.5989 44.9001 75.5989 41.1212C75.5989 38.6184 74.2769 37.0316 72.2037 36.2137V36.0951C73.033 35.7714 73.7378 35.2031 74.2194 34.4698C74.701 33.7365 74.9353 32.8749 74.8896 32.0055C74.8896 28.607 72.4723 26.3495 68.1748 26.3495L57.9347 26.3986ZM62.1314 34.9868V29.6703H67.1676C69.2282 29.6703 70.3026 30.66 70.3026 32.3285C70.3026 33.9971 69.2282 34.9868 67.1676 34.9868H62.1314ZM62.1314 43.984V38.2585H67.5201C69.757 38.2585 70.9195 39.3341 70.9195 41.1212C70.9195 42.9084 69.757 43.984 67.5201 43.984H62.1314ZM90.4974 44.6997C90.0778 44.6997 89.8302 44.5524 89.8302 43.7877V36.7208C89.8302 33.7558 87.9416 31.6783 83.5014 31.6783C80.0265 31.6783 77.4707 33.4164 76.8369 36.365L80.5133 36.9416C80.9582 35.3835 82.0997 34.6269 83.4259 34.6269C85.1046 34.6269 85.8516 35.3712 85.8516 36.5409C85.8516 37.4774 85.1256 37.9354 82.3011 38.3035C78.4443 38.7902 76.2872 40.0416 76.2872 43.3951C76.2872 46.2824 78.5996 48 81.3443 48C83.1531 48 84.9997 47.3498 85.9607 46.0288H86.074C86.5189 47.3375 87.5681 47.8528 89.2762 47.8528C89.8869 47.8638 90.4965 47.7964 91.0892 47.6524V44.577C90.8998 44.648 90.7001 44.6894 90.4974 44.6997ZM85.6334 41.428C85.6334 43.9717 83.535 45.0146 81.936 45.0146C80.6056 45.0146 79.7621 44.2621 79.7621 43.0352C79.7621 41.612 80.9078 40.8963 82.3725 40.6673C83.8372 40.4383 85.1507 40.2583 85.6334 39.8207V41.428ZM95.286 33.7804V31.7355H91.0892V47.2761H95.286V38.7779C95.286 35.9806 96.8933 34.6187 98.6434 34.6187C100.545 34.6187 101.581 35.5225 101.581 38.0377V47.2557H105.778V37.0071C105.778 33.0606 103.285 31.3307 100.322 31.3307C99.3592 31.2953 98.4029 31.4998 97.5437 31.9249C96.6845 32.3499 95.9508 32.9815 95.4119 33.7599L95.286 33.7804ZM111.234 42.2295L113.022 40.4383L117.609 47.2761H122.544L115.901 37.69L121.873 31.7151H117.004L111.234 37.7432V25.9896H107.037V47.2557H111.234V42.2295Z" fill="#243E90"/>
<path d="M68.3385 0C62.1021 0 57.7374 4.08963 57.7374 10.9888C57.7374 17.888 62.1021 21.9736 68.3385 21.9736C74.5749 21.9736 78.9437 17.884 78.9437 10.9888C78.9437 4.09372 74.5791 0 68.3385 0ZM68.3385 18.4033C64.8636 18.4033 62.3497 16.0068 62.3497 10.9807C62.3497 5.9545 64.8677 3.55798 68.3385 3.55798C71.8092 3.55798 74.3315 5.95041 74.3315 10.9807C74.3315 16.0109 71.8176 18.4033 68.3385 18.4033ZM88.932 22.084C92.9777 22.084 95.9826 18.8818 95.9826 13.827C95.9826 8.77226 92.9777 5.5987 88.8481 5.5987C86.7245 5.5987 84.878 6.3103 83.8791 8.01568H83.9463V5.97086H79.7495V26.828H83.9463V19.8756H84.068C85.0165 21.2661 86.6574 22.084 88.932 22.084ZM87.7402 8.71091C90.1323 8.71091 91.6641 10.4326 91.6641 13.7125C91.6641 16.9924 90.1323 18.7264 87.7402 18.7264C85.348 18.7264 83.8372 17.0006 83.8372 13.7125C83.8372 10.4245 85.3606 8.69047 87.7402 8.69047V8.71091ZM103.268 18.5833C102.11 18.5833 101.59 18.3502 101.59 17.0987V8.81315H104.947V5.95041H101.59V1.45182H97.3927V5.95041H94.8747V8.81315H97.3927V17.9944C97.3927 21.0984 98.87 21.9818 102.11 21.9818C103.068 21.9894 104.023 21.8669 104.947 21.6178V18.3461C104.395 18.4945 103.824 18.5675 103.251 18.5628L103.268 18.5833ZM105.367 0.245378V3.92605H109.563V0.245378H105.367ZM105.367 5.97086V21.5115H109.563V5.97086H105.367ZM130.287 5.5619C127.727 5.5619 126.191 6.6661 124.903 8.14246C123.988 6.37164 122.242 5.5619 120.286 5.5619C119.348 5.54513 118.42 5.76161 117.591 6.19092C116.762 6.62023 116.059 7.24822 115.548 8.01568H115.43V5.97086H111.234V21.5115H115.43V13.0132C115.43 10.2159 116.92 8.85405 118.549 8.85405C120.295 8.85405 121.306 9.75786 121.306 12.273V21.491H125.503V12.9928C125.503 10.2159 126.98 8.85405 128.608 8.85405C130.358 8.85405 131.378 9.75786 131.378 12.273V21.491H135.575V11.2301C135.575 7.27545 133.128 5.54554 130.266 5.54554L130.287 5.5619ZM147.754 19.4666V21.5115H151.951V5.97086H147.334V14.4323C147.334 17.2051 145.727 18.5587 143.977 18.5587C142.076 18.5587 141.039 17.6549 141.039 15.148V5.95041H136.842V16.199C136.842 20.1496 139.432 21.8836 142.525 21.8836C144.833 21.8836 146.529 20.9553 147.632 19.4298L147.754 19.4666ZM166.425 10.1096C165.939 7.36134 163.085 5.53736 159.35 5.53736C155.615 5.53736 152.509 7.32453 152.509 10.2936C152.509 13.6389 155.203 14.5223 157.763 14.9231L159.509 15.2012C161.318 15.4956 162.518 15.9373 162.518 17.0415C162.518 18.342 161.322 19.1231 159.53 19.1231C157.549 19.1231 156.206 18.2643 155.824 16.4035L151.888 16.9515C152.433 19.986 155.304 21.8591 159.484 21.8591C163.664 21.8591 166.828 20.2846 166.828 16.8779C166.828 13.3976 164.05 12.5633 161.18 12.0889L159.547 11.8395C157.902 11.5696 156.739 11.2547 156.739 10.1259C156.739 8.99719 157.818 8.28559 159.354 8.28559C160.89 8.28559 162.17 9.10352 162.51 10.6208L166.425 10.1096Z" fill="#243E90"/>
<path fill-rule="evenodd" clip-rule="evenodd" d="M33.1434 1.8353C36.3627 3.17081 39.2528 5.18268 41.6152 7.73271C43.9776 10.2827 45.7563 13.3105 46.829 16.6079C47.9017 19.9054 48.2431 23.3944 47.8297 26.8353C47.4163 30.2763 46.2579 33.5875 44.4341 36.5417C42.6102 39.4958 40.1642 42.0228 37.264 43.949C34.3639 45.8752 31.0782 47.1551 27.6329 47.7006C24.1876 48.2462 20.6642 48.0444 17.3048 47.1094C13.9454 46.1743 10.8296 44.5279 8.17141 42.2835C6.84162 41.0203 5.1307 37.2758 5.58639 34.3461C6.04208 31.4164 10.744 31.5686 13.5486 32.4945C10.5037 34.1033 12.3058 37.8807 18.8139 39.8517C27.5964 42.5139 38.4874 39.0616 42.4271 29.6717C46.6775 19.5206 41.3334 7.65359 30.4921 3.1726C20.1354 -1.10264 5.26326 4.61689 0.789185 16.8789C1.01013 16.1766 1.26559 15.4771 1.55558 14.7804C4.01915 8.90564 8.72974 4.24246 14.6525 1.81522C20.5753 -0.612013 27.226 -0.60479 33.1434 1.8353Z" fill="#181C4B"/>
<path fill-rule="evenodd" clip-rule="evenodd" d="M33.1434 1.8353C36.3627 3.17081 39.2528 5.18268 41.6152 7.73271C43.9776 10.2827 45.7563 13.3105 46.829 16.6079C47.9017 19.9054 48.2431 23.3944 47.8297 26.8353C47.4163 30.2763 46.2579 33.5875 44.4341 36.5417C42.6102 39.4958 40.1642 42.0228 37.264 43.949C34.3639 45.8752 31.0782 47.1551 27.6329 47.7006C24.1876 48.2462 20.6642 48.0444 17.3048 47.1094C13.9454 46.1743 10.8296 44.5279 8.17141 42.2835C6.84162 41.0203 5.1307 37.2758 5.58639 34.3461C6.04208 31.4164 10.744 31.5686 13.5486 32.4945C10.5037 34.1033 12.3058 37.8807 18.8139 39.8517C27.5964 42.5139 38.4874 39.0616 42.4271 29.6717C46.6775 19.5206 41.3334 7.65359 30.4921 3.1726C20.1354 -1.10264 5.26326 4.61689 0.789185 16.8789C1.01013 16.1766 1.26559 15.4771 1.55558 14.7804C4.01915 8.90564 8.72974 4.24246 14.6525 1.81522C20.5753 -0.612013 27.226 -0.60479 33.1434 1.8353Z" fill="#243E90"/>
<path d="M7.96838 36.1061C7.9311 36.1637 7.89381 36.2295 7.86067 36.2913C7.58833 36.7724 7.38081 37.2871 7.24341 37.822C7.39977 37.218 7.64399 36.64 7.96838 36.1061ZM10.019 34.1516H9.99H10.019ZM10.0977 34.1145L10.048 34.1475L10.0977 34.1145ZM10.1226 34.1145H10.1019H10.1226ZM10.2758 33.7278L10.2386 33.7483L10.2758 33.7278ZM10.2966 33.7278H10.2758H10.2966ZM10.3546 33.6907L10.3007 33.7236L10.3546 33.6907ZM10.4374 33.6578L10.3794 33.6907L10.4374 33.6578ZM10.5161 33.6084L10.4374 33.6537L10.5161 33.6084ZM10.7233 33.4973L10.5203 33.6084L10.7233 33.4973ZM10.8061 33.4521L10.7233 33.4973L10.8061 33.4521ZM10.8682 33.4233L10.8061 33.4521L10.8682 33.4233ZM10.889 33.4233H10.8682H10.889ZM10.9511 33.3945L10.889 33.4233L10.9511 33.3945ZM11.0091 33.3945H10.976H11.0091ZM11.0712 33.3945H11.0422H11.0712ZM32.9238 21.0625C30.2808 23.2598 26.8341 23.5725 23.1098 23.5725C22.3683 23.5725 21.6185 23.5725 20.8604 23.5478C20.1022 23.5231 19.3359 23.5231 18.5653 23.5231C15.8187 23.5231 13.0349 23.6836 10.4084 24.5724C2.6202 27.21 0.466014 35.5918 8.19208 42.2865C7.88776 41.8877 7.64096 41.4487 7.45883 40.9821C6.51247 39.7543 5.86327 38.3267 5.56149 36.8097C5.27966 35.3019 5.54847 33.7437 6.3196 32.4151C6.89492 31.4536 7.69312 30.6424 8.64778 30.0492C8.84248 29.9257 9.06204 29.8105 9.24846 29.7035C10.853 28.9238 12.5863 28.4387 14.3647 28.2716C16.2993 28.0288 18.2588 27.963 20.2017 27.8066C22.3995 27.6972 24.5722 27.2917 26.6601 26.601C29.1989 25.7159 31.3623 24.0049 32.7995 21.7456C32.8492 21.5234 32.8989 21.2929 32.9404 21.0625" fill="#56BA5F"/>
<path d="M7.96838 36.1061C7.9311 36.1637 7.89381 36.2295 7.86067 36.2913C7.58833 36.7724 7.38081 37.2871 7.24341 37.822C7.39977 37.218 7.64399 36.64 7.96838 36.1061ZM10.019 34.1516H9.99H10.019ZM10.0977 34.1145L10.048 34.1475L10.0977 34.1145ZM10.1226 34.1145H10.1019H10.1226ZM10.2758 33.7278L10.2386 33.7483L10.2758 33.7278ZM10.2966 33.7278H10.2758H10.2966ZM10.3546 33.6907L10.3007 33.7236L10.3546 33.6907ZM10.4374 33.6578L10.3794 33.6907L10.4374 33.6578ZM10.5161 33.6084L10.4374 33.6537L10.5161 33.6084ZM10.7233 33.4973L10.5203 33.6084L10.7233 33.4973ZM10.8061 33.4521L10.7233 33.4973L10.8061 33.4521ZM10.8682 33.4233L10.8061 33.4521L10.8682 33.4233ZM10.889 33.4233H10.8682H10.889ZM10.9511 33.3945L10.889 33.4233L10.9511 33.3945ZM11.0091 33.3945H10.976H11.0091ZM11.0712 33.3945H11.0422H11.0712ZM32.9238 21.0625C30.2808 23.2598 26.8341 23.5725 23.1098 23.5725C22.3683 23.5725 21.6185 23.5725 20.8604 23.5478C20.1022 23.5231 19.3359 23.5231 18.5653 23.5231C15.8187 23.5231 13.0349 23.6836 10.4084 24.5724C2.6202 27.21 0.466014 35.5918 8.19208 42.2865C7.88776 41.8877 7.64096 41.4487 7.45883 40.9821C6.51247 39.7543 5.86327 38.3267 5.56149 36.8097C5.27966 35.3019 5.54847 33.7437 6.3196 32.4151C6.89492 31.4536 7.69312 30.6424 8.64778 30.0492C8.84248 29.9257 9.06204 29.8105 9.24846 29.7035C10.853 28.9238 12.5863 28.4387 14.3647 28.2716C16.2993 28.0288 18.2588 27.963 20.2017 27.8066C22.3995 27.6972 24.5722 27.2917 26.6601 26.601C29.1989 25.7159 31.3623 24.0049 32.7995 21.7456C32.8492 21.5234 32.8989 21.2929 32.9404 21.0625" fill="url(#paint0_linear_8166_7707)"/>
<path d="M32.7829 21.7469C30.1109 33.7003 20.3425 31.0875 13.5237 32.4947C20.3425 31.071 30.0943 33.6839 32.7829 21.7305" fill="#B9B6CA"/>
<path d="M7.24352 37.8453C6.98831 38.8889 7.06354 39.9853 7.45894 40.9849C7.29205 40.5596 7.18337 40.1139 7.13581 39.6599C7.06722 39.0534 7.10365 38.4396 7.24352 37.8453ZM9.53442 34.3231C8.91166 34.8312 8.3819 35.4423 7.96849 36.1294C8.37483 35.417 8.90337 34.7807 9.53027 34.249M9.60484 34.249H9.58413H9.60484ZM9.68355 34.249H9.6587H9.68355ZM9.73741 34.249H9.71255H9.73741ZM9.79126 34.249H9.77055H9.79126ZM11.1791 33.3972H11.1583H11.1791ZM11.2122 33.3972H11.1873H11.2122ZM11.2412 33.3972H11.2205H11.2412ZM11.3033 33.3684L11.2453 33.3931L11.3033 33.3684ZM13.5238 32.4961C12.7705 32.6487 12.0338 32.8733 11.324 33.1668C12.0324 32.8733 12.7677 32.6487 13.5197 32.4961" fill="#253885"/>
<path d="M32.7829 21.7469C31.3458 24.0063 29.1824 25.7173 26.6435 26.6024C24.5557 27.293 22.383 27.6986 20.1851 27.808C18.2422 27.9643 16.2827 28.0302 14.3481 28.273C12.5697 28.4401 10.8365 28.9252 9.2319 29.7049C9.02891 29.8119 8.81763 29.9271 8.63121 30.0505C7.67655 30.6438 6.87835 31.455 6.30303 32.4165C5.5319 33.7451 5.26309 35.3033 5.54492 36.8111C5.85164 38.3295 6.50656 39.7572 7.45883 40.9835C7.06343 39.9839 6.9882 38.8875 7.24342 37.8439V37.8028C7.3809 37.2517 7.59271 36.7216 7.8731 36.2268C7.90624 36.1651 7.94353 36.0992 7.98081 36.0416C8.39422 35.3545 8.92398 34.7434 9.54674 34.2353H9.56745H9.59231H9.61716H9.63788H9.66688L9.71659 34.2023H9.7373L10.2758 33.7291H10.2966L10.3504 33.6962L10.4084 33.6633L10.4871 33.618L10.6901 33.5069L10.773 33.4617L10.8351 33.4329H10.8558L10.918 33.4041H10.9511H10.9801H11.0008H11.0257H11.0464L11.1044 33.3794C11.8763 32.9985 12.6874 32.7019 13.5237 32.4947C20.3425 31.071 30.0944 33.6839 32.7829 21.7305" fill="url(#paint1_linear_8166_7707)"/>
<path d="M32.7829 21.7469C31.3458 24.0063 29.1824 25.7173 26.6435 26.6024C24.5557 27.293 22.383 27.6986 20.1851 27.808C18.2422 27.9643 16.2827 28.0302 14.3481 28.273C12.5697 28.4401 10.8365 28.9252 9.2319 29.7049C9.02891 29.8119 8.81763 29.9271 8.63121 30.0505C7.67655 30.6438 6.87835 31.455 6.30303 32.4165C5.5319 33.7451 5.26309 35.3033 5.54492 36.8111C5.85164 38.3295 6.50656 39.7572 7.45883 40.9835C7.06343 39.9839 6.9882 38.8875 7.24342 37.8439V37.8028C7.3809 37.2517 7.59271 36.7216 7.8731 36.2268C7.90624 36.1651 7.94353 36.0992 7.98081 36.0416C8.39422 35.3545 8.92398 34.7434 9.54674 34.2353H9.56745H9.59231H9.61716H9.63788H9.66688L9.71659 34.2023H9.7373L10.2758 33.7291H10.2966L10.3504 33.6962L10.4084 33.6633L10.4871 33.618L10.6901 33.5069L10.773 33.4617L10.8351 33.4329H10.8558L10.918 33.4041H10.9511H10.9801H11.0008H11.0257H11.0464L11.1044 33.3794C11.8763 32.9985 12.6874 32.7019 13.5237 32.4947C20.3425 31.071 30.0944 33.6839 32.7829 21.7305" fill="url(#paint2_linear_8166_7707)"/>
<path d="M32.7829 21.7469C31.3458 24.0063 29.1824 25.7173 26.6435 26.6024C24.5557 27.293 22.383 27.6986 20.1851 27.808C18.2422 27.9643 16.2827 28.0302 14.3481 28.273C12.5697 28.4401 10.8365 28.9252 9.2319 29.7049C9.02891 29.8119 8.81763 29.9271 8.63121 30.0505C7.67655 30.6438 6.87835 31.455 6.30303 32.4165C5.5319 33.7451 5.26309 35.3033 5.54492 36.8111C5.85164 38.3295 6.50656 39.7572 7.45883 40.9835C7.06343 39.9839 6.9882 38.8875 7.24342 37.8439V37.8028C7.3809 37.2517 7.59271 36.7216 7.8731 36.2268C7.90624 36.1651 7.94353 36.0992 7.98081 36.0416C8.39422 35.3545 8.92398 34.7434 9.54674 34.2353H9.56745H9.59231H9.61716H9.63788H9.66688L9.71659 34.2023H9.7373L10.2758 33.7291H10.2966L10.3504 33.6962L10.4084 33.6633L10.4871 33.618L10.6901 33.5069L10.773 33.4617L10.8351 33.4329H10.8558L10.918 33.4041H10.9511H10.9801H11.0008H11.0257H11.0464L11.1044 33.3794C11.8763 32.9985 12.6874 32.7019 13.5237 32.4947C20.3425 31.071 30.0944 33.6839 32.7829 21.7305" fill="#4B8E52"/>
<path d="M32.7829 21.7469C31.3458 24.0063 29.1824 25.7173 26.6435 26.6024C24.5557 27.293 22.383 27.6986 20.1851 27.808C18.2422 27.9643 16.2827 28.0302 14.3481 28.273C12.5697 28.4401 10.8365 28.9252 9.2319 29.7049C9.02891 29.8119 8.81763 29.9271 8.63121 30.0505C7.67655 30.6438 6.87835 31.455 6.30303 32.4165C5.5319 33.7451 5.26309 35.3033 5.54492 36.8111C5.85164 38.3295 6.50656 39.7572 7.45883 40.9835C7.06343 39.9839 6.9882 38.8875 7.24342 37.8439V37.8028C7.3809 37.2517 7.59271 36.7216 7.8731 36.2268C7.90624 36.1651 7.94353 36.0992 7.98081 36.0416C8.39422 35.3545 8.92398 34.7434 9.54674 34.2353H9.56745H9.59231H9.61716H9.63788H9.66688L9.71659 34.2023H9.7373L10.2758 33.7291H10.2966L10.3504 33.6962L10.4084 33.6633L10.4871 33.618L10.6901 33.5069L10.773 33.4617L10.8351 33.4329H10.8558L10.918 33.4041H10.9511H10.9801H11.0008H11.0257H11.0464L11.1044 33.3794C11.8763 32.9985 12.6874 32.7019 13.5237 32.4947C20.3425 31.071 30.0944 33.6839 32.7829 21.7305" fill="url(#paint3_linear_8166_7707)"/>
<path d="M12.1111 34.4671C12.1185 35.1937 12.3891 35.8933 12.8733 36.438C12.387 35.8943 12.1148 35.1944 12.1069 34.4671M13.5237 32.4961C13.004 32.7485 12.5777 33.1575 12.3058 33.6647C12.5777 33.1575 13.004 32.7485 13.5237 32.4961Z" fill="#C7C4D4"/>
<path d="M12.3016 33.6914C12.1851 33.932 12.1202 34.194 12.1111 34.4609C12.1202 34.194 12.1851 33.932 12.3016 33.6914Z" fill="#C7C4D4"/>
<path d="M13.5237 32.4961C12.6124 32.9858 12.1442 33.6688 12.1152 34.4424C12.1244 34.1755 12.1893 33.9135 12.3058 33.6729C12.5763 33.1626 13.0027 32.7506 13.5237 32.4961Z" fill="#A6A3BC"/>
<path d="M12.111 34.4614C7.02561 35.4501 7.30662 41.0328 8.19206 42.2794C8.19206 42.2053 7.40081 36.6134 12.8774 36.4241C12.3907 35.8806 12.1185 35.1805 12.111 34.4531" fill="#253988"/>
<path d="M12.111 34.4614C7.02561 35.4501 7.30662 41.0328 8.19206 42.2794C8.19206 42.2053 7.40081 36.6134 12.8774 36.4241C12.3907 35.8806 12.1185 35.1805 12.111 34.4531" fill="#1A1D4E"/>
<path d="M12.111 34.4614C7.02561 35.4501 7.30662 41.0328 8.19206 42.2794C8.19206 42.2053 7.40081 36.6134 12.8774 36.4241C12.3907 35.8806 12.1185 35.1805 12.111 34.4531" fill="#E8F4E8"/>
<path d="M12.111 34.4614C7.02561 35.4501 7.30662 41.0328 8.19206 42.2794C8.19206 42.2053 7.40081 36.6134 12.8774 36.4241C12.3907 35.8806 12.1185 35.1805 12.111 34.4531" fill="#253988"/>
<path d="M12.5898 32.7552C12.3197 32.8209 11.8723 32.9771 11.3944 33.1771C10.6509 33.4883 9.83327 33.9054 9.49287 34.2531C8.89304 34.7478 8.37937 35.3372 7.97251 35.9978L7.9518 36.0307C7.37264 36.9614 7.05905 38.0309 7.04456 39.125C7.04456 39.2978 7.04456 39.4665 7.06941 39.6393C7.16769 40.6304 7.51439 41.4797 8.12579 42.2604C7.4174 41.026 6.83535 35.9475 12.0841 34.6143C12.1235 33.6698 12.5898 33.0511 13.4657 32.4961" fill="#D7ECD8"/>
<path d="M12.5898 32.7552C12.3197 32.8209 11.8723 32.9771 11.3944 33.1771C10.6509 33.4883 9.83327 33.9054 9.49287 34.2531C8.89304 34.7478 8.37937 35.3372 7.97251 35.9978L7.9518 36.0307C7.37264 36.9614 7.05905 38.0309 7.04456 39.125C7.04456 39.2978 7.04456 39.4665 7.06941 39.6393C7.16769 40.6304 7.51439 41.4797 8.12579 42.2604C7.4174 41.026 6.83535 35.9475 12.0841 34.6143C12.1235 33.6698 12.5898 33.0511 13.4657 32.4961" fill="#263581"/>
<path d="M27.5715 20.6387H27.5467H27.5715ZM27.6834 20.6387H27.6585H27.6834ZM27.7207 20.6387H27.6917H27.7207ZM28.0148 20.5605L27.7289 20.6387L28.0148 20.5605ZM28.0479 20.5605H28.0148H28.0479ZM28.0852 20.5605H28.0521H28.0852ZM28.1225 20.5605H28.0893H28.1225ZM28.1722 20.149H28.1349H28.1722ZM28.2053 20.149H28.1722H28.2053ZM28.2426 20.149H28.2053H28.2426ZM28.2758 20.149H28.2426H28.2758ZM28.3131 20.149H28.2799H28.3131ZM36.0433 9.5C33.4458 11.8207 29.386 12.1664 24.8581 12.1664C23.8928 12.1664 22.9027 12.1664 21.9043 12.1376C20.906 12.1088 19.891 12.1046 18.8761 12.1046C13.7143 12.1046 8.48212 12.5161 4.41816 15.3718C0.416349 18.1616 -1.04601 23.087 0.772618 30.8845C0.830615 30.617 0.90104 30.3454 0.983893 30.0615C0.905183 25.634 1.92428 21.4205 6.15394 19.1615C9.69592 17.2687 14.2611 17.0918 18.2049 16.9518C20.6657 16.8654 23.1761 16.8202 25.6037 16.491C27.8408 16.1906 30.111 15.6351 32.058 14.4336C33.7088 13.4298 35.0457 11.9893 35.919 10.2736C35.1857 14.7998 33.1061 18.6512 28.3006 20.1161C33.3837 18.569 35.4177 14.3307 36.0433 9.5Z" fill="#56BA5F"/>
<path d="M27.5715 20.6387H27.5467H27.5715ZM27.6834 20.6387H27.6585H27.6834ZM27.7207 20.6387H27.6917H27.7207ZM28.0148 20.5605L27.7289 20.6387L28.0148 20.5605ZM28.0479 20.5605H28.0148H28.0479ZM28.0852 20.5605H28.0521H28.0852ZM28.1225 20.5605H28.0893H28.1225ZM28.1722 20.149H28.1349H28.1722ZM28.2053 20.149H28.1722H28.2053ZM28.2426 20.149H28.2053H28.2426ZM28.2758 20.149H28.2426H28.2758ZM28.3131 20.149H28.2799H28.3131ZM36.0433 9.5C33.4458 11.8207 29.386 12.1664 24.8581 12.1664C23.8928 12.1664 22.9027 12.1664 21.9043 12.1376C20.906 12.1088 19.891 12.1046 18.8761 12.1046C13.7143 12.1046 8.48212 12.5161 4.41816 15.3718C0.416349 18.1616 -1.04601 23.087 0.772618 30.8845C0.830615 30.617 0.90104 30.3454 0.983893 30.0615C0.905183 25.634 1.92428 21.4205 6.15394 19.1615C9.69592 17.2687 14.2611 17.0918 18.2049 16.9518C20.6657 16.8654 23.1761 16.8202 25.6037 16.491C27.8408 16.1906 30.111 15.6351 32.058 14.4336C33.7088 13.4298 35.0457 11.9893 35.919 10.2736C35.1857 14.7998 33.1061 18.6512 28.3006 20.1161C33.3837 18.569 35.4177 14.3307 36.0433 9.5Z" fill="url(#paint4_linear_8166_7707)"/>
<path d="M1.10817 29.6931L0.983887 30.0799L1.10817 29.6931ZM25.2889 20.7106L24.9243 20.7353L25.2889 20.7106ZM25.8647 20.7106H25.8233H25.8647ZM26.2541 20.6653L25.9103 20.7106L26.2541 20.6653ZM26.4613 20.6653H26.4323H26.4613ZM26.7098 20.6653H26.6808H26.7098ZM26.8755 20.6653H26.8424H26.8755ZM26.917 20.6653H26.8838H26.917ZM27.0454 20.6406L26.9253 20.6653L27.0454 20.6406ZM27.0827 20.6406H27.0495H27.0827ZM27.1241 20.6406H27.0951H27.1241ZM27.1614 20.6406H27.1365H27.1614ZM27.2028 20.6406H27.178H27.2028Z" fill="#C7C4D4"/>
<path d="M35.919 10.2734C35.0469 11.9922 33.7099 13.4356 32.058 14.4417C30.111 15.6268 27.8408 16.1822 25.6037 16.4991C23.1596 16.8283 20.6657 16.8735 18.2049 16.9599C14.2611 17.0998 9.6959 17.2891 6.15392 19.186C1.92426 21.4368 0.905166 25.6503 0.983876 30.0778L1.10816 29.691C4.97327 17.2685 19.4726 22.2287 28.3089 20.1489C33.1061 18.6511 35.1857 14.7997 35.919 10.2734Z" fill="url(#paint5_linear_8166_7707)"/>
</g>
<defs>
<linearGradient id="paint0_linear_8166_7707" x1="22.737" y1="15.1866" x2="9.91645" y2="47.2965" gradientUnits="userSpaceOnUse">
<stop stop-color="#243E90"/>
<stop offset="1" stop-color="#75C485"/>
</linearGradient>
<linearGradient id="paint1_linear_8166_7707" x1="24.2201" y1="15.7805" x2="11.3995" y2="47.8904" gradientUnits="userSpaceOnUse">
<stop stop-color="#253885"/>
<stop offset="0.03" stop-color="#273B85"/>
<stop offset="0.47" stop-color="#446E82"/>
<stop offset="0.81" stop-color="#568E81"/>
<stop offset="1" stop-color="#5D9A80"/>
</linearGradient>
<linearGradient id="paint2_linear_8166_7707" x1="24.2268" y1="15.7506" x2="11.3829" y2="47.8819" gradientUnits="userSpaceOnUse">
<stop stop-color="#22205F"/>
<stop offset="0.43" stop-color="#3F5B6F"/>
<stop offset="0.81" stop-color="#55897B"/>
<stop offset="1" stop-color="#5D9A80"/>
</linearGradient>
<linearGradient id="paint3_linear_8166_7707" x1="24.2201" y1="15.7805" x2="11.3995" y2="47.8904" gradientUnits="userSpaceOnUse">
<stop stop-color="#253885"/>
<stop offset="0.03" stop-color="#273B85"/>
<stop offset="0.47" stop-color="#446E82"/>
<stop offset="0.81" stop-color="#568E81"/>
<stop offset="1" stop-color="#5D9A80"/>
</linearGradient>
<linearGradient id="paint4_linear_8166_7707" x1="10.2386" y1="4.66103" x2="23.3754" y2="30.0026" gradientUnits="userSpaceOnUse">
<stop stop-color="#243E90"/>
<stop offset="1" stop-color="#75C485"/>
</linearGradient>
<linearGradient id="paint5_linear_8166_7707" x1="10.2842" y1="4.6362" x2="23.4209" y2="29.9778" gradientUnits="userSpaceOnUse">
<stop stop-color="#253988"/>
<stop offset="0.08" stop-color="#2B4487"/>
<stop offset="0.5" stop-color="#497784"/>
<stop offset="0.82" stop-color="#5B9782"/>
<stop offset="1" stop-color="#62A381"/>
</linearGradient>
<clipPath id="clip0_8166_7707">
<rect width="166.909" height="48" fill="white"/>
</clipPath>
</defs>
</svg>
